<svg width="334" height="111" viewBox="0 0 334 111" fill="none" xmlns="http://www.w3.org/2000/svg">
<path d="M262.458 9.14315C262.789 8.44503 263.493 8 264.265 8L276.723 8C277.502 8 278.21 8.45219 278.537 9.15884L311.666 80.6214C312.284 81.9563 311.299 83.4799 309.827 83.4625L231.476 82.5352C230.055 82.5184 229.104 81.0672 229.657 79.7581L233.984 69.4979C234.297 68.7569 235.023 68.2752 235.827 68.2752L283.43 68.2752C284.875 68.2752 285.843 66.7892 285.259 65.4671L272.581 36.7676C271.857 35.1272 269.506 35.196 268.878 36.876L258.485 64.6998C258.193 65.4817 257.447 66 256.612 66L238.661 66C237.193 66 236.225 64.4701 236.854 63.1431L262.458 9.14315Z" fill="#E05785"/>
<path d="M163 24C161.895 24 161 23.1046 161 22L161 10C161 8.89543 161.895 8 163 8L198 8H201.747C206.543 8 211.711 8.56104 214.786 12.2427C221.738 20.5685 222.224 37.0154 213 44C223.421 50.8626 224.037 65.932 216.485 75.7052C212.528 80.8268 205.61 82 199.138 82C185.548 82 179.917 82 163.001 82C161.896 82 161 81.1046 161 80V68C161 66.8954 161.895 66 163 66L199 66C208.602 66.2361 208.392 53.2284 199 53L163 53C161.895 53 161 52.1046 161 51V39C161 37.8954 161.895 37 163 37L199 37C208.783 36.5858 208.247 23.5607 199 24L163 24Z" fill="#E05785"/>
<rect x="85" y="24" width="16" height="57" rx="2" transform="rotate(-90 85 24)" fill="#E05785"/>
<rect x="85" y="83" width="16" height="57" rx="2" transform="rotate(-90 85 83)" fill="#E05785"/>
<rect x="85" y="54" width="16" height="53" rx="2" transform="rotate(-90 85 54)" fill="#E05785"/>
<rect y="7" width="16" height="28" rx="2" fill="#E05785"/>
<path d="M0 40C0 38.8954 0.895431 38 2 38H43.5C44.6046 38 45.5 37.1046 45.5 36V9C45.5 7.89543 46.3954 7 47.5 7H60C61.1046 7 62 7.89543 62 9V80C62 81.1046 61.1046 82 60 82H47.5C46.3954 82 45.5 81.1046 45.5 80V55.5C45.5 54.3954 44.6046 53.5 43.5 53.5H18C16.8954 53.5 16 54.3954 16 55.5V80C16 81.1046 15.1046 82 14 82H2C0.895431 82 0 81.1046 0 80V40Z" fill="#E05785"/>
</svg>
